<svg xmlns="http://www.w3.org/2000/svg" xmlns:xlink="http://www.w3.org/1999/xlink" width="40" zoomAndPan="magnify" viewBox="0 0 30 30.000001" height="40" preserveAspectRatio="xMidYMid meet" version="1.0"><defs><clipPath id="356d2c3954"><path d="M 2.824219 9 L 27.5 9 L 27.5 19.863281 L 2.824219 19.863281 Z M 2.824219 9 " clip-rule="nonzero"/></clipPath></defs><g clip-path="url(#356d2c3954)"><path fill="#040606" d="M 25.617188 16.640625 L 27.332031 15.234375 L 25.171875 12.738281 C 25.953125 11.980469 26.660156 11.113281 27.257812 10.136719 L 26.175781 9.484375 C 25.394531 9.015625 24.386719 9.195312 23.792969 9.882812 C 21.703125 12.378906 18.574219 13.824219 15.183594 13.824219 C 11.789062 13.824219 8.660156 12.378906 6.535156 9.847656 C 5.976562 9.160156 4.929688 8.980469 4.148438 9.449219 L 2.992188 10.101562 C 3.625 11.113281 4.371094 12.015625 5.191406 12.8125 L 3.179688 15.125 L 4.894531 16.535156 L 6.90625 14.21875 C 7.652344 14.726562 8.433594 15.160156 9.292969 15.523438 L 8.175781 18.375 L 10.261719 19.136719 L 11.414062 16.207031 C 12.273438 16.425781 13.167969 16.570312 14.101562 16.640625 L 14.101562 19.859375 L 16.335938 19.859375 L 16.335938 16.640625 C 17.265625 16.570312 18.199219 16.425781 19.054688 16.207031 L 20.25 19.207031 L 22.339844 18.449219 L 21.183594 15.484375 C 22 15.125 22.785156 14.691406 23.53125 14.148438 L 25.617188 16.640625 " fill-opacity="1" fill-rule="nonzero"/></g></svg>