<svg xmlns="http://www.w3.org/2000/svg" xmlns:xlink="http://www.w3.org/1999/xlink" width="40" zoomAndPan="magnify" viewBox="0 0 30 30.000001" height="40" preserveAspectRatio="xMidYMid meet" version="1.0"><defs><clipPath id="fb09a58782"><path d="M 2.226562 7.28125 L 27.628906 7.28125 L 27.628906 21.800781 L 2.226562 21.800781 Z M 2.226562 7.28125 " clip-rule="nonzero"/></clipPath></defs><g clip-path="url(#fb09a58782)"><path fill="#000000" d="M 14.886719 7.355469 C 10.039062 7.355469 5.582031 9.585938 2.652344 13.46875 C 2.195312 14.074219 2.195312 14.921875 2.652344 15.527344 C 5.582031 19.414062 10.039062 21.640625 14.886719 21.640625 C 19.730469 21.640625 24.191406 19.414062 27.121094 15.527344 C 27.578125 14.921875 27.578125 14.078125 27.121094 13.472656 C 24.191406 9.585938 19.730469 7.355469 14.886719 7.355469 Z M 25.785156 14.5 C 23.175781 17.964844 19.203125 19.949219 14.886719 19.949219 C 10.570312 19.949219 6.597656 17.964844 3.984375 14.496094 C 6.597656 11.03125 10.570312 9.046875 14.886719 9.046875 C 19.203125 9.046875 23.175781 11.03125 25.785156 14.496094 C 25.785156 14.496094 25.785156 14.5 25.785156 14.5 Z M 25.785156 14.5 " fill-opacity="1" fill-rule="nonzero"/></g><path fill="#000000" d="M 14.886719 9.542969 C 12.179688 9.542969 9.976562 11.765625 9.976562 14.5 C 9.976562 17.230469 12.179688 19.453125 14.886719 19.453125 C 17.59375 19.453125 19.792969 17.230469 19.792969 14.5 C 19.792969 11.765625 17.59375 9.542969 14.886719 9.542969 Z M 14.886719 17.757812 C 13.105469 17.757812 11.65625 16.296875 11.65625 14.5 C 11.65625 12.699219 13.105469 11.238281 14.886719 11.238281 C 16.667969 11.238281 18.117188 12.699219 18.117188 14.5 C 18.117188 16.296875 16.667969 17.757812 14.886719 17.757812 Z M 14.886719 17.757812 " fill-opacity="1" fill-rule="nonzero"/></svg>